<mxfile host="Electron" agent="Mozilla/5.0 (Windows NT 10.0; Win64; x64) AppleWebKit/537.36 (KHTML, like Gecko) draw.io/26.2.2 Chrome/134.0.6998.178 Electron/35.1.2 Safari/537.36" version="26.2.2">
  <diagram name="Página-1" id="RwFNckPwvG7efu05Jqke">
    <mxGraphModel dx="2110" dy="660" grid="1" gridSize="10" guides="1" tooltips="1" connect="1" arrows="1" fold="1" page="1" pageScale="1" pageWidth="827" pageHeight="1169" math="0" shadow="0">
      <root>
        <mxCell id="0" />
        <mxCell id="1" parent="0" />
        <mxCell id="CQSdWUwGCRoOXEsNLzJb-5" value="Usuario" style="swimlane;fontStyle=0;childLayout=stackLayout;horizontal=1;startSize=26;fillColor=none;horizontalStack=0;resizeParent=1;resizeParentMax=0;resizeLast=0;collapsible=1;marginBottom=0;whiteSpace=wrap;html=1;" parent="1" vertex="1">
          <mxGeometry x="30" y="10" width="180" height="260" as="geometry" />
        </mxCell>
        <mxCell id="CQSdWUwGCRoOXEsNLzJb-6" value="id:Long" style="text;strokeColor=none;fillColor=none;align=left;verticalAlign=top;spacingLeft=4;spacingRight=4;overflow=hidden;rotatable=0;points=[[0,0.5],[1,0.5]];portConstraint=eastwest;whiteSpace=wrap;html=1;" parent="CQSdWUwGCRoOXEsNLzJb-5" vertex="1">
          <mxGeometry y="26" width="180" height="26" as="geometry" />
        </mxCell>
        <mxCell id="CQSdWUwGCRoOXEsNLzJb-7" value="email:String" style="text;strokeColor=none;fillColor=none;align=left;verticalAlign=top;spacingLeft=4;spacingRight=4;overflow=hidden;rotatable=0;points=[[0,0.5],[1,0.5]];portConstraint=eastwest;whiteSpace=wrap;html=1;" parent="CQSdWUwGCRoOXEsNLzJb-5" vertex="1">
          <mxGeometry y="52" width="180" height="26" as="geometry" />
        </mxCell>
        <mxCell id="CQSdWUwGCRoOXEsNLzJb-9" value="contraseña:String" style="text;strokeColor=none;fillColor=none;align=left;verticalAlign=top;spacingLeft=4;spacingRight=4;overflow=hidden;rotatable=0;points=[[0,0.5],[1,0.5]];portConstraint=eastwest;whiteSpace=wrap;html=1;" parent="CQSdWUwGCRoOXEsNLzJb-5" vertex="1">
          <mxGeometry y="78" width="180" height="26" as="geometry" />
        </mxCell>
        <mxCell id="CQSdWUwGCRoOXEsNLzJb-8" value="nombre:String" style="text;strokeColor=none;fillColor=none;align=left;verticalAlign=top;spacingLeft=4;spacingRight=4;overflow=hidden;rotatable=0;points=[[0,0.5],[1,0.5]];portConstraint=eastwest;whiteSpace=wrap;html=1;" parent="CQSdWUwGCRoOXEsNLzJb-5" vertex="1">
          <mxGeometry y="104" width="180" height="26" as="geometry" />
        </mxCell>
        <mxCell id="CQSdWUwGCRoOXEsNLzJb-71" value="apellido:String" style="text;strokeColor=none;fillColor=none;align=left;verticalAlign=top;spacingLeft=4;spacingRight=4;overflow=hidden;rotatable=0;points=[[0,0.5],[1,0.5]];portConstraint=eastwest;whiteSpace=wrap;html=1;" parent="CQSdWUwGCRoOXEsNLzJb-5" vertex="1">
          <mxGeometry y="130" width="180" height="26" as="geometry" />
        </mxCell>
        <mxCell id="CQSdWUwGCRoOXEsNLzJb-11" value="telefono:String" style="text;strokeColor=none;fillColor=none;align=left;verticalAlign=top;spacingLeft=4;spacingRight=4;overflow=hidden;rotatable=0;points=[[0,0.5],[1,0.5]];portConstraint=eastwest;whiteSpace=wrap;html=1;" parent="CQSdWUwGCRoOXEsNLzJb-5" vertex="1">
          <mxGeometry y="156" width="180" height="26" as="geometry" />
        </mxCell>
        <mxCell id="CQSdWUwGCRoOXEsNLzJb-57" value="direcciones: List&amp;lt;Direccion&amp;gt;" style="text;strokeColor=none;fillColor=none;align=left;verticalAlign=top;spacingLeft=4;spacingRight=4;overflow=hidden;rotatable=0;points=[[0,0.5],[1,0.5]];portConstraint=eastwest;whiteSpace=wrap;html=1;" parent="CQSdWUwGCRoOXEsNLzJb-5" vertex="1">
          <mxGeometry y="182" width="180" height="26" as="geometry" />
        </mxCell>
        <mxCell id="CQSdWUwGCRoOXEsNLzJb-30" value="rol:Rol" style="text;strokeColor=none;fillColor=none;align=left;verticalAlign=top;spacingLeft=4;spacingRight=4;overflow=hidden;rotatable=0;points=[[0,0.5],[1,0.5]];portConstraint=eastwest;whiteSpace=wrap;html=1;" parent="CQSdWUwGCRoOXEsNLzJb-5" vertex="1">
          <mxGeometry y="208" width="180" height="26" as="geometry" />
        </mxCell>
        <mxCell id="gPlhfAnmZq1FcXpGH7Eh-26" value="restaurante:Restaurante" style="text;strokeColor=none;fillColor=none;align=left;verticalAlign=top;spacingLeft=4;spacingRight=4;overflow=hidden;rotatable=0;points=[[0,0.5],[1,0.5]];portConstraint=eastwest;whiteSpace=wrap;html=1;" parent="CQSdWUwGCRoOXEsNLzJb-5" vertex="1">
          <mxGeometry y="234" width="180" height="26" as="geometry" />
        </mxCell>
        <mxCell id="CQSdWUwGCRoOXEsNLzJb-16" value="Direccion" style="swimlane;fontStyle=0;childLayout=stackLayout;horizontal=1;startSize=26;fillColor=none;horizontalStack=0;resizeParent=1;resizeParentMax=0;resizeLast=0;collapsible=1;marginBottom=0;whiteSpace=wrap;html=1;" parent="1" vertex="1">
          <mxGeometry x="360" y="28" width="140" height="286" as="geometry" />
        </mxCell>
        <mxCell id="CQSdWUwGCRoOXEsNLzJb-53" value="id:Long" style="text;strokeColor=none;fillColor=none;align=left;verticalAlign=top;spacingLeft=4;spacingRight=4;overflow=hidden;rotatable=0;points=[[0,0.5],[1,0.5]];portConstraint=eastwest;whiteSpace=wrap;html=1;" parent="CQSdWUwGCRoOXEsNLzJb-16" vertex="1">
          <mxGeometry y="26" width="140" height="26" as="geometry" />
        </mxCell>
        <mxCell id="CQSdWUwGCRoOXEsNLzJb-17" value="calle:String" style="text;strokeColor=none;fillColor=none;align=left;verticalAlign=top;spacingLeft=4;spacingRight=4;overflow=hidden;rotatable=0;points=[[0,0.5],[1,0.5]];portConstraint=eastwest;whiteSpace=wrap;html=1;" parent="CQSdWUwGCRoOXEsNLzJb-16" vertex="1">
          <mxGeometry y="52" width="140" height="26" as="geometry" />
        </mxCell>
        <mxCell id="CQSdWUwGCRoOXEsNLzJb-18" value="numero:String" style="text;strokeColor=none;fillColor=none;align=left;verticalAlign=top;spacingLeft=4;spacingRight=4;overflow=hidden;rotatable=0;points=[[0,0.5],[1,0.5]];portConstraint=eastwest;whiteSpace=wrap;html=1;" parent="CQSdWUwGCRoOXEsNLzJb-16" vertex="1">
          <mxGeometry y="78" width="140" height="26" as="geometry" />
        </mxCell>
        <mxCell id="CQSdWUwGCRoOXEsNLzJb-20" value="piso:String" style="text;strokeColor=none;fillColor=none;align=left;verticalAlign=top;spacingLeft=4;spacingRight=4;overflow=hidden;rotatable=0;points=[[0,0.5],[1,0.5]];portConstraint=eastwest;whiteSpace=wrap;html=1;" parent="CQSdWUwGCRoOXEsNLzJb-16" vertex="1">
          <mxGeometry y="104" width="140" height="26" as="geometry" />
        </mxCell>
        <mxCell id="CQSdWUwGCRoOXEsNLzJb-21" value="depto:String" style="text;strokeColor=none;fillColor=none;align=left;verticalAlign=top;spacingLeft=4;spacingRight=4;overflow=hidden;rotatable=0;points=[[0,0.5],[1,0.5]];portConstraint=eastwest;whiteSpace=wrap;html=1;" parent="CQSdWUwGCRoOXEsNLzJb-16" vertex="1">
          <mxGeometry y="130" width="140" height="26" as="geometry" />
        </mxCell>
        <mxCell id="CQSdWUwGCRoOXEsNLzJb-54" value="codigoPostal:String" style="text;strokeColor=none;fillColor=none;align=left;verticalAlign=top;spacingLeft=4;spacingRight=4;overflow=hidden;rotatable=0;points=[[0,0.5],[1,0.5]];portConstraint=eastwest;whiteSpace=wrap;html=1;" parent="CQSdWUwGCRoOXEsNLzJb-16" vertex="1">
          <mxGeometry y="156" width="140" height="26" as="geometry" />
        </mxCell>
        <mxCell id="CQSdWUwGCRoOXEsNLzJb-22" value="referencias:String" style="text;strokeColor=none;fillColor=none;align=left;verticalAlign=top;spacingLeft=4;spacingRight=4;overflow=hidden;rotatable=0;points=[[0,0.5],[1,0.5]];portConstraint=eastwest;whiteSpace=wrap;html=1;" parent="CQSdWUwGCRoOXEsNLzJb-16" vertex="1">
          <mxGeometry y="182" width="140" height="26" as="geometry" />
        </mxCell>
        <mxCell id="CQSdWUwGCRoOXEsNLzJb-55" value="latitud:Double" style="text;strokeColor=none;fillColor=none;align=left;verticalAlign=top;spacingLeft=4;spacingRight=4;overflow=hidden;rotatable=0;points=[[0,0.5],[1,0.5]];portConstraint=eastwest;whiteSpace=wrap;html=1;" parent="CQSdWUwGCRoOXEsNLzJb-16" vertex="1">
          <mxGeometry y="208" width="140" height="26" as="geometry" />
        </mxCell>
        <mxCell id="CQSdWUwGCRoOXEsNLzJb-56" value="longitud:Double" style="text;strokeColor=none;fillColor=none;align=left;verticalAlign=top;spacingLeft=4;spacingRight=4;overflow=hidden;rotatable=0;points=[[0,0.5],[1,0.5]];portConstraint=eastwest;whiteSpace=wrap;html=1;" parent="CQSdWUwGCRoOXEsNLzJb-16" vertex="1">
          <mxGeometry y="234" width="140" height="26" as="geometry" />
        </mxCell>
        <mxCell id="CQSdWUwGCRoOXEsNLzJb-19" value="ciudad:Ciudad" style="text;strokeColor=none;fillColor=none;align=left;verticalAlign=top;spacingLeft=4;spacingRight=4;overflow=hidden;rotatable=0;points=[[0,0.5],[1,0.5]];portConstraint=eastwest;whiteSpace=wrap;html=1;" parent="CQSdWUwGCRoOXEsNLzJb-16" vertex="1">
          <mxGeometry y="260" width="140" height="26" as="geometry" />
        </mxCell>
        <mxCell id="CQSdWUwGCRoOXEsNLzJb-34" value="Rol" style="swimlane;fontStyle=1;align=center;verticalAlign=top;childLayout=stackLayout;horizontal=1;startSize=26;horizontalStack=0;resizeParent=1;resizeParentMax=0;resizeLast=0;collapsible=1;marginBottom=0;whiteSpace=wrap;html=1;" parent="1" vertex="1">
          <mxGeometry x="20" y="370" width="160" height="112" as="geometry" />
        </mxCell>
        <mxCell id="CQSdWUwGCRoOXEsNLzJb-35" value="id:Long" style="text;strokeColor=none;fillColor=none;align=left;verticalAlign=top;spacingLeft=4;spacingRight=4;overflow=hidden;rotatable=0;points=[[0,0.5],[1,0.5]];portConstraint=eastwest;whiteSpace=wrap;html=1;" parent="CQSdWUwGCRoOXEsNLzJb-34" vertex="1">
          <mxGeometry y="26" width="160" height="26" as="geometry" />
        </mxCell>
        <mxCell id="CQSdWUwGCRoOXEsNLzJb-38" value="nombre:String" style="text;strokeColor=none;fillColor=none;align=left;verticalAlign=top;spacingLeft=4;spacingRight=4;overflow=hidden;rotatable=0;points=[[0,0.5],[1,0.5]];portConstraint=eastwest;whiteSpace=wrap;html=1;" parent="CQSdWUwGCRoOXEsNLzJb-34" vertex="1">
          <mxGeometry y="52" width="160" height="26" as="geometry" />
        </mxCell>
        <mxCell id="CQSdWUwGCRoOXEsNLzJb-43" value="permisos: List&amp;lt;Permiso&amp;gt;" style="text;strokeColor=none;fillColor=none;align=left;verticalAlign=top;spacingLeft=4;spacingRight=4;overflow=hidden;rotatable=0;points=[[0,0.5],[1,0.5]];portConstraint=eastwest;whiteSpace=wrap;html=1;" parent="CQSdWUwGCRoOXEsNLzJb-34" vertex="1">
          <mxGeometry y="78" width="160" height="26" as="geometry" />
        </mxCell>
        <mxCell id="CQSdWUwGCRoOXEsNLzJb-36" value="" style="line;strokeWidth=1;fillColor=none;align=left;verticalAlign=middle;spacingTop=-1;spacingLeft=3;spacingRight=3;rotatable=0;labelPosition=right;points=[];portConstraint=eastwest;strokeColor=inherit;" parent="CQSdWUwGCRoOXEsNLzJb-34" vertex="1">
          <mxGeometry y="104" width="160" height="8" as="geometry" />
        </mxCell>
        <mxCell id="CQSdWUwGCRoOXEsNLzJb-39" value="Permiso" style="swimlane;fontStyle=0;childLayout=stackLayout;horizontal=1;startSize=26;fillColor=none;horizontalStack=0;resizeParent=1;resizeParentMax=0;resizeLast=0;collapsible=1;marginBottom=0;whiteSpace=wrap;html=1;" parent="1" vertex="1">
          <mxGeometry x="355" y="408" width="140" height="78" as="geometry" />
        </mxCell>
        <mxCell id="CQSdWUwGCRoOXEsNLzJb-40" value="id:Long" style="text;strokeColor=none;fillColor=none;align=left;verticalAlign=top;spacingLeft=4;spacingRight=4;overflow=hidden;rotatable=0;points=[[0,0.5],[1,0.5]];portConstraint=eastwest;whiteSpace=wrap;html=1;" parent="CQSdWUwGCRoOXEsNLzJb-39" vertex="1">
          <mxGeometry y="26" width="140" height="26" as="geometry" />
        </mxCell>
        <mxCell id="CQSdWUwGCRoOXEsNLzJb-41" value="nombre:String" style="text;strokeColor=none;fillColor=none;align=left;verticalAlign=top;spacingLeft=4;spacingRight=4;overflow=hidden;rotatable=0;points=[[0,0.5],[1,0.5]];portConstraint=eastwest;whiteSpace=wrap;html=1;" parent="CQSdWUwGCRoOXEsNLzJb-39" vertex="1">
          <mxGeometry y="52" width="140" height="26" as="geometry" />
        </mxCell>
        <mxCell id="CQSdWUwGCRoOXEsNLzJb-46" value="Ciudad" style="swimlane;fontStyle=0;childLayout=stackLayout;horizontal=1;startSize=26;fillColor=none;horizontalStack=0;resizeParent=1;resizeParentMax=0;resizeLast=0;collapsible=1;marginBottom=0;whiteSpace=wrap;html=1;" parent="1" vertex="1">
          <mxGeometry x="640" y="88" width="140" height="104" as="geometry" />
        </mxCell>
        <mxCell id="CQSdWUwGCRoOXEsNLzJb-47" value="id:Long" style="text;strokeColor=none;fillColor=none;align=left;verticalAlign=top;spacingLeft=4;spacingRight=4;overflow=hidden;rotatable=0;points=[[0,0.5],[1,0.5]];portConstraint=eastwest;whiteSpace=wrap;html=1;" parent="CQSdWUwGCRoOXEsNLzJb-46" vertex="1">
          <mxGeometry y="26" width="140" height="26" as="geometry" />
        </mxCell>
        <mxCell id="CQSdWUwGCRoOXEsNLzJb-78" value="nombre:String" style="text;strokeColor=none;fillColor=none;align=left;verticalAlign=top;spacingLeft=4;spacingRight=4;overflow=hidden;rotatable=0;points=[[0,0.5],[1,0.5]];portConstraint=eastwest;whiteSpace=wrap;html=1;" parent="CQSdWUwGCRoOXEsNLzJb-46" vertex="1">
          <mxGeometry y="52" width="140" height="26" as="geometry" />
        </mxCell>
        <mxCell id="CQSdWUwGCRoOXEsNLzJb-48" value="provincia:Provincia" style="text;strokeColor=none;fillColor=none;align=left;verticalAlign=top;spacingLeft=4;spacingRight=4;overflow=hidden;rotatable=0;points=[[0,0.5],[1,0.5]];portConstraint=eastwest;whiteSpace=wrap;html=1;" parent="CQSdWUwGCRoOXEsNLzJb-46" vertex="1">
          <mxGeometry y="78" width="140" height="26" as="geometry" />
        </mxCell>
        <mxCell id="CQSdWUwGCRoOXEsNLzJb-60" value="Provincia" style="swimlane;fontStyle=0;childLayout=stackLayout;horizontal=1;startSize=26;fillColor=none;horizontalStack=0;resizeParent=1;resizeParentMax=0;resizeLast=0;collapsible=1;marginBottom=0;whiteSpace=wrap;html=1;" parent="1" vertex="1">
          <mxGeometry x="610" y="330" width="140" height="78" as="geometry" />
        </mxCell>
        <mxCell id="CQSdWUwGCRoOXEsNLzJb-61" value="id:Long" style="text;strokeColor=none;fillColor=none;align=left;verticalAlign=top;spacingLeft=4;spacingRight=4;overflow=hidden;rotatable=0;points=[[0,0.5],[1,0.5]];portConstraint=eastwest;whiteSpace=wrap;html=1;" parent="CQSdWUwGCRoOXEsNLzJb-60" vertex="1">
          <mxGeometry y="26" width="140" height="26" as="geometry" />
        </mxCell>
        <mxCell id="CQSdWUwGCRoOXEsNLzJb-62" value="nombre:String" style="text;strokeColor=none;fillColor=none;align=left;verticalAlign=top;spacingLeft=4;spacingRight=4;overflow=hidden;rotatable=0;points=[[0,0.5],[1,0.5]];portConstraint=eastwest;whiteSpace=wrap;html=1;" parent="CQSdWUwGCRoOXEsNLzJb-60" vertex="1">
          <mxGeometry y="52" width="140" height="26" as="geometry" />
        </mxCell>
        <mxCell id="CQSdWUwGCRoOXEsNLzJb-65" value="" style="endArrow=diamondThin;endFill=0;endSize=24;html=1;rounded=0;exitX=0.638;exitY=-0.027;exitDx=0;exitDy=0;exitPerimeter=0;" parent="1" source="CQSdWUwGCRoOXEsNLzJb-34" target="CQSdWUwGCRoOXEsNLzJb-5" edge="1">
          <mxGeometry width="160" relative="1" as="geometry">
            <mxPoint x="260" y="190" as="sourcePoint" />
            <mxPoint x="420" y="190" as="targetPoint" />
            <Array as="points">
              <mxPoint x="120" y="300" />
            </Array>
          </mxGeometry>
        </mxCell>
        <mxCell id="CQSdWUwGCRoOXEsNLzJb-66" value="1" style="edgeLabel;html=1;align=center;verticalAlign=middle;resizable=0;points=[];" parent="CQSdWUwGCRoOXEsNLzJb-65" vertex="1" connectable="0">
          <mxGeometry x="0.5763" y="2" relative="1" as="geometry">
            <mxPoint as="offset" />
          </mxGeometry>
        </mxCell>
        <mxCell id="CQSdWUwGCRoOXEsNLzJb-67" value="1" style="edgeLabel;html=1;align=center;verticalAlign=middle;resizable=0;points=[];" parent="CQSdWUwGCRoOXEsNLzJb-65" vertex="1" connectable="0">
          <mxGeometry x="-0.757" y="-4" relative="1" as="geometry">
            <mxPoint as="offset" />
          </mxGeometry>
        </mxCell>
        <mxCell id="CQSdWUwGCRoOXEsNLzJb-72" value="" style="endArrow=open;endFill=1;endSize=12;html=1;rounded=0;" parent="1" source="CQSdWUwGCRoOXEsNLzJb-16" target="CQSdWUwGCRoOXEsNLzJb-46" edge="1">
          <mxGeometry width="160" relative="1" as="geometry">
            <mxPoint x="260" y="290" as="sourcePoint" />
            <mxPoint x="420" y="290" as="targetPoint" />
          </mxGeometry>
        </mxCell>
        <mxCell id="CQSdWUwGCRoOXEsNLzJb-73" value="*" style="edgeLabel;html=1;align=center;verticalAlign=middle;resizable=0;points=[];" parent="CQSdWUwGCRoOXEsNLzJb-72" vertex="1" connectable="0">
          <mxGeometry x="-0.8218" y="2" relative="1" as="geometry">
            <mxPoint as="offset" />
          </mxGeometry>
        </mxCell>
        <mxCell id="CQSdWUwGCRoOXEsNLzJb-74" value="1" style="edgeLabel;html=1;align=center;verticalAlign=middle;resizable=0;points=[];" parent="CQSdWUwGCRoOXEsNLzJb-72" vertex="1" connectable="0">
          <mxGeometry x="0.7572" y="-1" relative="1" as="geometry">
            <mxPoint as="offset" />
          </mxGeometry>
        </mxCell>
        <mxCell id="CQSdWUwGCRoOXEsNLzJb-79" value="HorarioAtencion" style="swimlane;fontStyle=0;childLayout=stackLayout;horizontal=1;startSize=26;fillColor=none;horizontalStack=0;resizeParent=1;resizeParentMax=0;resizeLast=0;collapsible=1;marginBottom=0;whiteSpace=wrap;html=1;" parent="1" vertex="1">
          <mxGeometry x="-553" y="88" width="140" height="130" as="geometry" />
        </mxCell>
        <mxCell id="CQSdWUwGCRoOXEsNLzJb-80" value="id:Long" style="text;strokeColor=none;fillColor=none;align=left;verticalAlign=top;spacingLeft=4;spacingRight=4;overflow=hidden;rotatable=0;points=[[0,0.5],[1,0.5]];portConstraint=eastwest;whiteSpace=wrap;html=1;" parent="CQSdWUwGCRoOXEsNLzJb-79" vertex="1">
          <mxGeometry y="26" width="140" height="26" as="geometry" />
        </mxCell>
        <mxCell id="CQSdWUwGCRoOXEsNLzJb-82" value="diaSemana:DayOfWeek" style="text;strokeColor=none;fillColor=none;align=left;verticalAlign=top;spacingLeft=4;spacingRight=4;overflow=hidden;rotatable=0;points=[[0,0.5],[1,0.5]];portConstraint=eastwest;whiteSpace=wrap;html=1;" parent="CQSdWUwGCRoOXEsNLzJb-79" vertex="1">
          <mxGeometry y="52" width="140" height="26" as="geometry" />
        </mxCell>
        <mxCell id="CQSdWUwGCRoOXEsNLzJb-83" value="horaApertura:LocalTime" style="text;strokeColor=none;fillColor=none;align=left;verticalAlign=top;spacingLeft=4;spacingRight=4;overflow=hidden;rotatable=0;points=[[0,0.5],[1,0.5]];portConstraint=eastwest;whiteSpace=wrap;html=1;" parent="CQSdWUwGCRoOXEsNLzJb-79" vertex="1">
          <mxGeometry y="78" width="140" height="26" as="geometry" />
        </mxCell>
        <mxCell id="CQSdWUwGCRoOXEsNLzJb-81" value="horaCierre:LocalTime" style="text;strokeColor=none;fillColor=none;align=left;verticalAlign=top;spacingLeft=4;spacingRight=4;overflow=hidden;rotatable=0;points=[[0,0.5],[1,0.5]];portConstraint=eastwest;whiteSpace=wrap;html=1;" parent="CQSdWUwGCRoOXEsNLzJb-79" vertex="1">
          <mxGeometry y="104" width="140" height="26" as="geometry" />
        </mxCell>
        <mxCell id="CQSdWUwGCRoOXEsNLzJb-84" value="Menu" style="swimlane;fontStyle=0;childLayout=stackLayout;horizontal=1;startSize=26;fillColor=none;horizontalStack=0;resizeParent=1;resizeParentMax=0;resizeLast=0;collapsible=1;marginBottom=0;whiteSpace=wrap;html=1;" parent="1" vertex="1">
          <mxGeometry x="-255" y="620" width="140" height="104" as="geometry" />
        </mxCell>
        <mxCell id="CQSdWUwGCRoOXEsNLzJb-85" value="id:Long" style="text;strokeColor=none;fillColor=none;align=left;verticalAlign=top;spacingLeft=4;spacingRight=4;overflow=hidden;rotatable=0;points=[[0,0.5],[1,0.5]];portConstraint=eastwest;whiteSpace=wrap;html=1;" parent="CQSdWUwGCRoOXEsNLzJb-84" vertex="1">
          <mxGeometry y="26" width="140" height="26" as="geometry" />
        </mxCell>
        <mxCell id="CQSdWUwGCRoOXEsNLzJb-86" value="nombre:String" style="text;strokeColor=none;fillColor=none;align=left;verticalAlign=top;spacingLeft=4;spacingRight=4;overflow=hidden;rotatable=0;points=[[0,0.5],[1,0.5]];portConstraint=eastwest;whiteSpace=wrap;html=1;" parent="CQSdWUwGCRoOXEsNLzJb-84" vertex="1">
          <mxGeometry y="52" width="140" height="26" as="geometry" />
        </mxCell>
        <mxCell id="CQSdWUwGCRoOXEsNLzJb-87" value="productos:List&amp;lt;Producto&amp;gt;" style="text;strokeColor=none;fillColor=none;align=left;verticalAlign=top;spacingLeft=4;spacingRight=4;overflow=hidden;rotatable=0;points=[[0,0.5],[1,0.5]];portConstraint=eastwest;whiteSpace=wrap;html=1;" parent="CQSdWUwGCRoOXEsNLzJb-84" vertex="1">
          <mxGeometry y="78" width="140" height="26" as="geometry" />
        </mxCell>
        <mxCell id="CQSdWUwGCRoOXEsNLzJb-89" value="Producto" style="swimlane;fontStyle=0;childLayout=stackLayout;horizontal=1;startSize=26;fillColor=none;horizontalStack=0;resizeParent=1;resizeParentMax=0;resizeLast=0;collapsible=1;marginBottom=0;whiteSpace=wrap;html=1;" parent="1" vertex="1">
          <mxGeometry x="300" y="644" width="250" height="208" as="geometry" />
        </mxCell>
        <mxCell id="CQSdWUwGCRoOXEsNLzJb-90" value="id:Long" style="text;strokeColor=none;fillColor=none;align=left;verticalAlign=top;spacingLeft=4;spacingRight=4;overflow=hidden;rotatable=0;points=[[0,0.5],[1,0.5]];portConstraint=eastwest;whiteSpace=wrap;html=1;" parent="CQSdWUwGCRoOXEsNLzJb-89" vertex="1">
          <mxGeometry y="26" width="250" height="26" as="geometry" />
        </mxCell>
        <mxCell id="CQSdWUwGCRoOXEsNLzJb-91" value="nombre:String" style="text;strokeColor=none;fillColor=none;align=left;verticalAlign=top;spacingLeft=4;spacingRight=4;overflow=hidden;rotatable=0;points=[[0,0.5],[1,0.5]];portConstraint=eastwest;whiteSpace=wrap;html=1;" parent="CQSdWUwGCRoOXEsNLzJb-89" vertex="1">
          <mxGeometry y="52" width="250" height="26" as="geometry" />
        </mxCell>
        <mxCell id="CQSdWUwGCRoOXEsNLzJb-93" value="descripcion:String" style="text;strokeColor=none;fillColor=none;align=left;verticalAlign=top;spacingLeft=4;spacingRight=4;overflow=hidden;rotatable=0;points=[[0,0.5],[1,0.5]];portConstraint=eastwest;whiteSpace=wrap;html=1;" parent="CQSdWUwGCRoOXEsNLzJb-89" vertex="1">
          <mxGeometry y="78" width="250" height="26" as="geometry" />
        </mxCell>
        <mxCell id="CQSdWUwGCRoOXEsNLzJb-94" value="precio:BigDecimal" style="text;strokeColor=none;fillColor=none;align=left;verticalAlign=top;spacingLeft=4;spacingRight=4;overflow=hidden;rotatable=0;points=[[0,0.5],[1,0.5]];portConstraint=eastwest;whiteSpace=wrap;html=1;" parent="CQSdWUwGCRoOXEsNLzJb-89" vertex="1">
          <mxGeometry y="104" width="250" height="26" as="geometry" />
        </mxCell>
        <mxCell id="CQSdWUwGCRoOXEsNLzJb-95" value="disponible:Boolean" style="text;strokeColor=none;fillColor=none;align=left;verticalAlign=top;spacingLeft=4;spacingRight=4;overflow=hidden;rotatable=0;points=[[0,0.5],[1,0.5]];portConstraint=eastwest;whiteSpace=wrap;html=1;" parent="CQSdWUwGCRoOXEsNLzJb-89" vertex="1">
          <mxGeometry y="130" width="250" height="26" as="geometry" />
        </mxCell>
        <mxCell id="gPlhfAnmZq1FcXpGH7Eh-33" value="calificaciones: List&amp;lt;CalificacionProducto&amp;gt;" style="text;strokeColor=none;fillColor=none;align=left;verticalAlign=top;spacingLeft=4;spacingRight=4;overflow=hidden;rotatable=0;points=[[0,0.5],[1,0.5]];portConstraint=eastwest;whiteSpace=wrap;html=1;" parent="CQSdWUwGCRoOXEsNLzJb-89" vertex="1">
          <mxGeometry y="156" width="250" height="26" as="geometry" />
        </mxCell>
        <mxCell id="CQSdWUwGCRoOXEsNLzJb-92" value="imagenes:List&amp;lt;Imagen&amp;gt;" style="text;strokeColor=none;fillColor=none;align=left;verticalAlign=top;spacingLeft=4;spacingRight=4;overflow=hidden;rotatable=0;points=[[0,0.5],[1,0.5]];portConstraint=eastwest;whiteSpace=wrap;html=1;" parent="CQSdWUwGCRoOXEsNLzJb-89" vertex="1">
          <mxGeometry y="182" width="250" height="26" as="geometry" />
        </mxCell>
        <mxCell id="CQSdWUwGCRoOXEsNLzJb-96" value="" style="endArrow=diamondThin;endFill=0;endSize=24;html=1;rounded=0;" parent="1" source="CQSdWUwGCRoOXEsNLzJb-89" target="CQSdWUwGCRoOXEsNLzJb-87" edge="1">
          <mxGeometry width="160" relative="1" as="geometry">
            <mxPoint x="310" y="470" as="sourcePoint" />
            <mxPoint x="190" y="470" as="targetPoint" />
          </mxGeometry>
        </mxCell>
        <mxCell id="CQSdWUwGCRoOXEsNLzJb-97" value="1" style="edgeLabel;html=1;align=center;verticalAlign=middle;resizable=0;points=[];" parent="CQSdWUwGCRoOXEsNLzJb-96" vertex="1" connectable="0">
          <mxGeometry x="0.5763" y="2" relative="1" as="geometry">
            <mxPoint as="offset" />
          </mxGeometry>
        </mxCell>
        <mxCell id="CQSdWUwGCRoOXEsNLzJb-98" value="*" style="edgeLabel;html=1;align=center;verticalAlign=middle;resizable=0;points=[];" parent="CQSdWUwGCRoOXEsNLzJb-96" vertex="1" connectable="0">
          <mxGeometry x="-0.757" y="-4" relative="1" as="geometry">
            <mxPoint as="offset" />
          </mxGeometry>
        </mxCell>
        <mxCell id="CQSdWUwGCRoOXEsNLzJb-99" value="Promocion" style="swimlane;fontStyle=0;childLayout=stackLayout;horizontal=1;startSize=26;fillColor=none;horizontalStack=0;resizeParent=1;resizeParentMax=0;resizeLast=0;collapsible=1;marginBottom=0;whiteSpace=wrap;html=1;" parent="1" vertex="1">
          <mxGeometry x="-750" y="280" width="140" height="156" as="geometry" />
        </mxCell>
        <mxCell id="CQSdWUwGCRoOXEsNLzJb-100" value="id:Long" style="text;strokeColor=none;fillColor=none;align=left;verticalAlign=top;spacingLeft=4;spacingRight=4;overflow=hidden;rotatable=0;points=[[0,0.5],[1,0.5]];portConstraint=eastwest;whiteSpace=wrap;html=1;" parent="CQSdWUwGCRoOXEsNLzJb-99" vertex="1">
          <mxGeometry y="26" width="140" height="26" as="geometry" />
        </mxCell>
        <mxCell id="CQSdWUwGCRoOXEsNLzJb-101" value="descripcion:String" style="text;strokeColor=none;fillColor=none;align=left;verticalAlign=top;spacingLeft=4;spacingRight=4;overflow=hidden;rotatable=0;points=[[0,0.5],[1,0.5]];portConstraint=eastwest;whiteSpace=wrap;html=1;" parent="CQSdWUwGCRoOXEsNLzJb-99" vertex="1">
          <mxGeometry y="52" width="140" height="26" as="geometry" />
        </mxCell>
        <mxCell id="CQSdWUwGCRoOXEsNLzJb-102" value="descuento:Double" style="text;strokeColor=none;fillColor=none;align=left;verticalAlign=top;spacingLeft=4;spacingRight=4;overflow=hidden;rotatable=0;points=[[0,0.5],[1,0.5]];portConstraint=eastwest;whiteSpace=wrap;html=1;" parent="CQSdWUwGCRoOXEsNLzJb-99" vertex="1">
          <mxGeometry y="78" width="140" height="26" as="geometry" />
        </mxCell>
        <mxCell id="CQSdWUwGCRoOXEsNLzJb-103" value="fechaInicio:LocalDate" style="text;strokeColor=none;fillColor=none;align=left;verticalAlign=top;spacingLeft=4;spacingRight=4;overflow=hidden;rotatable=0;points=[[0,0.5],[1,0.5]];portConstraint=eastwest;whiteSpace=wrap;html=1;" parent="CQSdWUwGCRoOXEsNLzJb-99" vertex="1">
          <mxGeometry y="104" width="140" height="26" as="geometry" />
        </mxCell>
        <mxCell id="CQSdWUwGCRoOXEsNLzJb-104" value="fechaFin:LocalDate" style="text;strokeColor=none;fillColor=none;align=left;verticalAlign=top;spacingLeft=4;spacingRight=4;overflow=hidden;rotatable=0;points=[[0,0.5],[1,0.5]];portConstraint=eastwest;whiteSpace=wrap;html=1;" parent="CQSdWUwGCRoOXEsNLzJb-99" vertex="1">
          <mxGeometry y="130" width="140" height="26" as="geometry" />
        </mxCell>
        <mxCell id="CQSdWUwGCRoOXEsNLzJb-105" value="Pedido" style="swimlane;fontStyle=0;childLayout=stackLayout;horizontal=1;startSize=26;fillColor=none;horizontalStack=0;resizeParent=1;resizeParentMax=0;resizeLast=0;collapsible=1;marginBottom=0;whiteSpace=wrap;html=1;" parent="1" vertex="1">
          <mxGeometry x="-310" y="800" width="270" height="312" as="geometry" />
        </mxCell>
        <mxCell id="CQSdWUwGCRoOXEsNLzJb-106" value="id:Long" style="text;strokeColor=none;fillColor=none;align=left;verticalAlign=top;spacingLeft=4;spacingRight=4;overflow=hidden;rotatable=0;points=[[0,0.5],[1,0.5]];portConstraint=eastwest;whiteSpace=wrap;html=1;" parent="CQSdWUwGCRoOXEsNLzJb-105" vertex="1">
          <mxGeometry y="26" width="270" height="26" as="geometry" />
        </mxCell>
        <mxCell id="CQSdWUwGCRoOXEsNLzJb-107" value="cliente:Usuario" style="text;strokeColor=none;fillColor=none;align=left;verticalAlign=top;spacingLeft=4;spacingRight=4;overflow=hidden;rotatable=0;points=[[0,0.5],[1,0.5]];portConstraint=eastwest;whiteSpace=wrap;html=1;" parent="CQSdWUwGCRoOXEsNLzJb-105" vertex="1">
          <mxGeometry y="52" width="270" height="26" as="geometry" />
        </mxCell>
        <mxCell id="CQSdWUwGCRoOXEsNLzJb-108" value="restaurante:Usuario?" style="text;strokeColor=none;fillColor=none;align=left;verticalAlign=top;spacingLeft=4;spacingRight=4;overflow=hidden;rotatable=0;points=[[0,0.5],[1,0.5]];portConstraint=eastwest;whiteSpace=wrap;html=1;" parent="CQSdWUwGCRoOXEsNLzJb-105" vertex="1">
          <mxGeometry y="78" width="270" height="26" as="geometry" />
        </mxCell>
        <mxCell id="CQSdWUwGCRoOXEsNLzJb-109" value="direccionEntrega:Direccion" style="text;strokeColor=none;fillColor=none;align=left;verticalAlign=top;spacingLeft=4;spacingRight=4;overflow=hidden;rotatable=0;points=[[0,0.5],[1,0.5]];portConstraint=eastwest;whiteSpace=wrap;html=1;" parent="CQSdWUwGCRoOXEsNLzJb-105" vertex="1">
          <mxGeometry y="104" width="270" height="26" as="geometry" />
        </mxCell>
        <mxCell id="CQSdWUwGCRoOXEsNLzJb-110" value="tipoEntrega:TipoEntrega" style="text;strokeColor=none;fillColor=none;align=left;verticalAlign=top;spacingLeft=4;spacingRight=4;overflow=hidden;rotatable=0;points=[[0,0.5],[1,0.5]];portConstraint=eastwest;whiteSpace=wrap;html=1;" parent="CQSdWUwGCRoOXEsNLzJb-105" vertex="1">
          <mxGeometry y="130" width="270" height="26" as="geometry" />
        </mxCell>
        <mxCell id="CQSdWUwGCRoOXEsNLzJb-111" value="tipoPago:TipoPago" style="text;strokeColor=none;fillColor=none;align=left;verticalAlign=top;spacingLeft=4;spacingRight=4;overflow=hidden;rotatable=0;points=[[0,0.5],[1,0.5]];portConstraint=eastwest;whiteSpace=wrap;html=1;" parent="CQSdWUwGCRoOXEsNLzJb-105" vertex="1">
          <mxGeometry y="156" width="270" height="26" as="geometry" />
        </mxCell>
        <mxCell id="CQSdWUwGCRoOXEsNLzJb-113" value="fechaHora:LocalDateTime" style="text;strokeColor=none;fillColor=none;align=left;verticalAlign=top;spacingLeft=4;spacingRight=4;overflow=hidden;rotatable=0;points=[[0,0.5],[1,0.5]];portConstraint=eastwest;whiteSpace=wrap;html=1;" parent="CQSdWUwGCRoOXEsNLzJb-105" vertex="1">
          <mxGeometry y="182" width="270" height="26" as="geometry" />
        </mxCell>
        <mxCell id="CQSdWUwGCRoOXEsNLzJb-112" value="estado:EstadoPedido" style="text;strokeColor=none;fillColor=none;align=left;verticalAlign=top;spacingLeft=4;spacingRight=4;overflow=hidden;rotatable=0;points=[[0,0.5],[1,0.5]];portConstraint=eastwest;whiteSpace=wrap;html=1;" parent="CQSdWUwGCRoOXEsNLzJb-105" vertex="1">
          <mxGeometry y="208" width="270" height="26" as="geometry" />
        </mxCell>
        <mxCell id="CQSdWUwGCRoOXEsNLzJb-114" value="items:List&amp;lt;ProductoPedido&amp;gt;" style="text;strokeColor=none;fillColor=none;align=left;verticalAlign=top;spacingLeft=4;spacingRight=4;overflow=hidden;rotatable=0;points=[[0,0.5],[1,0.5]];portConstraint=eastwest;whiteSpace=wrap;html=1;" parent="CQSdWUwGCRoOXEsNLzJb-105" vertex="1">
          <mxGeometry y="234" width="270" height="26" as="geometry" />
        </mxCell>
        <mxCell id="CQSdWUwGCRoOXEsNLzJb-116" value="total:BigDecimal" style="text;strokeColor=none;fillColor=none;align=left;verticalAlign=top;spacingLeft=4;spacingRight=4;overflow=hidden;rotatable=0;points=[[0,0.5],[1,0.5]];portConstraint=eastwest;whiteSpace=wrap;html=1;" parent="CQSdWUwGCRoOXEsNLzJb-105" vertex="1">
          <mxGeometry y="260" width="270" height="26" as="geometry" />
        </mxCell>
        <mxCell id="CQSdWUwGCRoOXEsNLzJb-115" value="calificacionRestaurante:CalificacionRestaurante?" style="text;strokeColor=none;fillColor=none;align=left;verticalAlign=top;spacingLeft=4;spacingRight=4;overflow=hidden;rotatable=0;points=[[0,0.5],[1,0.5]];portConstraint=eastwest;whiteSpace=wrap;html=1;" parent="CQSdWUwGCRoOXEsNLzJb-105" vertex="1">
          <mxGeometry y="286" width="270" height="26" as="geometry" />
        </mxCell>
        <mxCell id="CQSdWUwGCRoOXEsNLzJb-117" value="ProductoPedido" style="swimlane;fontStyle=0;childLayout=stackLayout;horizontal=1;startSize=26;fillColor=none;horizontalStack=0;resizeParent=1;resizeParentMax=0;resizeLast=0;collapsible=1;marginBottom=0;whiteSpace=wrap;html=1;" parent="1" vertex="1">
          <mxGeometry x="190" y="960" width="170" height="130" as="geometry" />
        </mxCell>
        <mxCell id="CQSdWUwGCRoOXEsNLzJb-118" value="id:Long" style="text;strokeColor=none;fillColor=none;align=left;verticalAlign=top;spacingLeft=4;spacingRight=4;overflow=hidden;rotatable=0;points=[[0,0.5],[1,0.5]];portConstraint=eastwest;whiteSpace=wrap;html=1;" parent="CQSdWUwGCRoOXEsNLzJb-117" vertex="1">
          <mxGeometry y="26" width="170" height="26" as="geometry" />
        </mxCell>
        <mxCell id="CQSdWUwGCRoOXEsNLzJb-119" value="producto:Producto" style="text;strokeColor=none;fillColor=none;align=left;verticalAlign=top;spacingLeft=4;spacingRight=4;overflow=hidden;rotatable=0;points=[[0,0.5],[1,0.5]];portConstraint=eastwest;whiteSpace=wrap;html=1;" parent="CQSdWUwGCRoOXEsNLzJb-117" vertex="1">
          <mxGeometry y="52" width="170" height="26" as="geometry" />
        </mxCell>
        <mxCell id="CQSdWUwGCRoOXEsNLzJb-120" value="cantidad:Integer" style="text;strokeColor=none;fillColor=none;align=left;verticalAlign=top;spacingLeft=4;spacingRight=4;overflow=hidden;rotatable=0;points=[[0,0.5],[1,0.5]];portConstraint=eastwest;whiteSpace=wrap;html=1;" parent="CQSdWUwGCRoOXEsNLzJb-117" vertex="1">
          <mxGeometry y="78" width="170" height="26" as="geometry" />
        </mxCell>
        <mxCell id="CQSdWUwGCRoOXEsNLzJb-121" value="precioUnitario:BigDecimal" style="text;strokeColor=none;fillColor=none;align=left;verticalAlign=top;spacingLeft=4;spacingRight=4;overflow=hidden;rotatable=0;points=[[0,0.5],[1,0.5]];portConstraint=eastwest;whiteSpace=wrap;html=1;" parent="CQSdWUwGCRoOXEsNLzJb-117" vertex="1">
          <mxGeometry y="104" width="170" height="26" as="geometry" />
        </mxCell>
        <mxCell id="CQSdWUwGCRoOXEsNLzJb-123" value="" style="endArrow=diamondThin;endFill=0;endSize=24;html=1;rounded=0;entryX=1;entryY=0.5;entryDx=0;entryDy=0;" parent="1" source="CQSdWUwGCRoOXEsNLzJb-117" target="CQSdWUwGCRoOXEsNLzJb-114" edge="1">
          <mxGeometry width="160" relative="1" as="geometry">
            <mxPoint x="203" y="700" as="sourcePoint" />
            <mxPoint x="154" y="654" as="targetPoint" />
          </mxGeometry>
        </mxCell>
        <mxCell id="CQSdWUwGCRoOXEsNLzJb-124" value="1" style="edgeLabel;html=1;align=center;verticalAlign=middle;resizable=0;points=[];" parent="CQSdWUwGCRoOXEsNLzJb-123" vertex="1" connectable="0">
          <mxGeometry x="0.5763" y="2" relative="1" as="geometry">
            <mxPoint as="offset" />
          </mxGeometry>
        </mxCell>
        <mxCell id="CQSdWUwGCRoOXEsNLzJb-125" value="*" style="edgeLabel;html=1;align=center;verticalAlign=middle;resizable=0;points=[];" parent="CQSdWUwGCRoOXEsNLzJb-123" vertex="1" connectable="0">
          <mxGeometry x="-0.757" y="-4" relative="1" as="geometry">
            <mxPoint as="offset" />
          </mxGeometry>
        </mxCell>
        <mxCell id="CQSdWUwGCRoOXEsNLzJb-126" value="EstadoPedido" style="swimlane;fontStyle=0;childLayout=stackLayout;horizontal=1;startSize=26;fillColor=none;horizontalStack=0;resizeParent=1;resizeParentMax=0;resizeLast=0;collapsible=1;marginBottom=0;whiteSpace=wrap;html=1;" parent="1" vertex="1">
          <mxGeometry x="-270" y="1190" width="170" height="52" as="geometry" />
        </mxCell>
        <mxCell id="CQSdWUwGCRoOXEsNLzJb-131" value="TipoPago" style="swimlane;fontStyle=0;childLayout=stackLayout;horizontal=1;startSize=26;fillColor=none;horizontalStack=0;resizeParent=1;resizeParentMax=0;resizeLast=0;collapsible=1;marginBottom=0;whiteSpace=wrap;html=1;" parent="1" vertex="1">
          <mxGeometry x="-30" y="1190" width="170" height="52" as="geometry" />
        </mxCell>
        <mxCell id="CQSdWUwGCRoOXEsNLzJb-132" value="TipoEntrega" style="swimlane;fontStyle=0;childLayout=stackLayout;horizontal=1;startSize=26;fillColor=none;horizontalStack=0;resizeParent=1;resizeParentMax=0;resizeLast=0;collapsible=1;marginBottom=0;whiteSpace=wrap;html=1;" parent="1" vertex="1">
          <mxGeometry x="-540" y="1160" width="170" height="52" as="geometry" />
        </mxCell>
        <mxCell id="CQSdWUwGCRoOXEsNLzJb-133" value="" style="endArrow=diamondThin;endFill=1;endSize=24;html=1;rounded=0;" parent="1" source="CQSdWUwGCRoOXEsNLzJb-126" target="CQSdWUwGCRoOXEsNLzJb-105" edge="1">
          <mxGeometry width="160" relative="1" as="geometry">
            <mxPoint x="290" y="920" as="sourcePoint" />
            <mxPoint x="450" y="920" as="targetPoint" />
          </mxGeometry>
        </mxCell>
        <mxCell id="CQSdWUwGCRoOXEsNLzJb-134" value="" style="endArrow=diamondThin;endFill=1;endSize=24;html=1;rounded=0;" parent="1" source="CQSdWUwGCRoOXEsNLzJb-131" target="CQSdWUwGCRoOXEsNLzJb-115" edge="1">
          <mxGeometry width="160" relative="1" as="geometry">
            <mxPoint x="-44" y="1090" as="sourcePoint" />
            <mxPoint x="-41" y="1002" as="targetPoint" />
          </mxGeometry>
        </mxCell>
        <mxCell id="CQSdWUwGCRoOXEsNLzJb-135" value="" style="endArrow=diamondThin;endFill=1;endSize=24;html=1;rounded=0;exitX=0.371;exitY=0.058;exitDx=0;exitDy=0;exitPerimeter=0;" parent="1" source="CQSdWUwGCRoOXEsNLzJb-132" target="CQSdWUwGCRoOXEsNLzJb-115" edge="1">
          <mxGeometry width="160" relative="1" as="geometry">
            <mxPoint x="147" y="1070" as="sourcePoint" />
            <mxPoint x="-6" y="1002" as="targetPoint" />
          </mxGeometry>
        </mxCell>
        <mxCell id="gPlhfAnmZq1FcXpGH7Eh-1" value="CalificacionProducto" style="swimlane;fontStyle=0;childLayout=stackLayout;horizontal=1;startSize=26;fillColor=none;horizontalStack=0;resizeParent=1;resizeParentMax=0;resizeLast=0;collapsible=1;marginBottom=0;whiteSpace=wrap;html=1;" parent="1" vertex="1">
          <mxGeometry x="500" y="950" width="250" height="182" as="geometry" />
        </mxCell>
        <mxCell id="gPlhfAnmZq1FcXpGH7Eh-2" value="id:Long" style="text;strokeColor=none;fillColor=none;align=left;verticalAlign=top;spacingLeft=4;spacingRight=4;overflow=hidden;rotatable=0;points=[[0,0.5],[1,0.5]];portConstraint=eastwest;whiteSpace=wrap;html=1;" parent="gPlhfAnmZq1FcXpGH7Eh-1" vertex="1">
          <mxGeometry y="26" width="250" height="26" as="geometry" />
        </mxCell>
        <mxCell id="gPlhfAnmZq1FcXpGH7Eh-3" value="producto:Producto" style="text;strokeColor=none;fillColor=none;align=left;verticalAlign=top;spacingLeft=4;spacingRight=4;overflow=hidden;rotatable=0;points=[[0,0.5],[1,0.5]];portConstraint=eastwest;whiteSpace=wrap;html=1;" parent="gPlhfAnmZq1FcXpGH7Eh-1" vertex="1">
          <mxGeometry y="52" width="250" height="26" as="geometry" />
        </mxCell>
        <mxCell id="gPlhfAnmZq1FcXpGH7Eh-4" value="usuario:Usuario" style="text;strokeColor=none;fillColor=none;align=left;verticalAlign=top;spacingLeft=4;spacingRight=4;overflow=hidden;rotatable=0;points=[[0,0.5],[1,0.5]];portConstraint=eastwest;whiteSpace=wrap;html=1;" parent="gPlhfAnmZq1FcXpGH7Eh-1" vertex="1">
          <mxGeometry y="78" width="250" height="26" as="geometry" />
        </mxCell>
        <mxCell id="gPlhfAnmZq1FcXpGH7Eh-5" value="puntaje:Integer" style="text;strokeColor=none;fillColor=none;align=left;verticalAlign=top;spacingLeft=4;spacingRight=4;overflow=hidden;rotatable=0;points=[[0,0.5],[1,0.5]];portConstraint=eastwest;whiteSpace=wrap;html=1;" parent="gPlhfAnmZq1FcXpGH7Eh-1" vertex="1">
          <mxGeometry y="104" width="250" height="26" as="geometry" />
        </mxCell>
        <mxCell id="gPlhfAnmZq1FcXpGH7Eh-6" value="comentario: String" style="text;strokeColor=none;fillColor=none;align=left;verticalAlign=top;spacingLeft=4;spacingRight=4;overflow=hidden;rotatable=0;points=[[0,0.5],[1,0.5]];portConstraint=eastwest;whiteSpace=wrap;html=1;" parent="gPlhfAnmZq1FcXpGH7Eh-1" vertex="1">
          <mxGeometry y="130" width="250" height="26" as="geometry" />
        </mxCell>
        <mxCell id="gPlhfAnmZq1FcXpGH7Eh-7" value="fecha:LocalDateTime" style="text;strokeColor=none;fillColor=none;align=left;verticalAlign=top;spacingLeft=4;spacingRight=4;overflow=hidden;rotatable=0;points=[[0,0.5],[1,0.5]];portConstraint=eastwest;whiteSpace=wrap;html=1;" parent="gPlhfAnmZq1FcXpGH7Eh-1" vertex="1">
          <mxGeometry y="156" width="250" height="26" as="geometry" />
        </mxCell>
        <mxCell id="gPlhfAnmZq1FcXpGH7Eh-8" value="CalificacionRestaurante" style="swimlane;fontStyle=0;childLayout=stackLayout;horizontal=1;startSize=26;fillColor=none;horizontalStack=0;resizeParent=1;resizeParentMax=0;resizeLast=0;collapsible=1;marginBottom=0;whiteSpace=wrap;html=1;" parent="1" vertex="1">
          <mxGeometry x="-580" y="350" width="250" height="182" as="geometry" />
        </mxCell>
        <mxCell id="gPlhfAnmZq1FcXpGH7Eh-9" value="id:Long" style="text;strokeColor=none;fillColor=none;align=left;verticalAlign=top;spacingLeft=4;spacingRight=4;overflow=hidden;rotatable=0;points=[[0,0.5],[1,0.5]];portConstraint=eastwest;whiteSpace=wrap;html=1;" parent="gPlhfAnmZq1FcXpGH7Eh-8" vertex="1">
          <mxGeometry y="26" width="250" height="26" as="geometry" />
        </mxCell>
        <mxCell id="gPlhfAnmZq1FcXpGH7Eh-10" value="restaurante:Restaurante" style="text;strokeColor=none;fillColor=none;align=left;verticalAlign=top;spacingLeft=4;spacingRight=4;overflow=hidden;rotatable=0;points=[[0,0.5],[1,0.5]];portConstraint=eastwest;whiteSpace=wrap;html=1;" parent="gPlhfAnmZq1FcXpGH7Eh-8" vertex="1">
          <mxGeometry y="52" width="250" height="26" as="geometry" />
        </mxCell>
        <mxCell id="gPlhfAnmZq1FcXpGH7Eh-11" value="usuario:Usuario" style="text;strokeColor=none;fillColor=none;align=left;verticalAlign=top;spacingLeft=4;spacingRight=4;overflow=hidden;rotatable=0;points=[[0,0.5],[1,0.5]];portConstraint=eastwest;whiteSpace=wrap;html=1;" parent="gPlhfAnmZq1FcXpGH7Eh-8" vertex="1">
          <mxGeometry y="78" width="250" height="26" as="geometry" />
        </mxCell>
        <mxCell id="gPlhfAnmZq1FcXpGH7Eh-12" value="puntaje:Integer" style="text;strokeColor=none;fillColor=none;align=left;verticalAlign=top;spacingLeft=4;spacingRight=4;overflow=hidden;rotatable=0;points=[[0,0.5],[1,0.5]];portConstraint=eastwest;whiteSpace=wrap;html=1;" parent="gPlhfAnmZq1FcXpGH7Eh-8" vertex="1">
          <mxGeometry y="104" width="250" height="26" as="geometry" />
        </mxCell>
        <mxCell id="gPlhfAnmZq1FcXpGH7Eh-13" value="comentario: String" style="text;strokeColor=none;fillColor=none;align=left;verticalAlign=top;spacingLeft=4;spacingRight=4;overflow=hidden;rotatable=0;points=[[0,0.5],[1,0.5]];portConstraint=eastwest;whiteSpace=wrap;html=1;" parent="gPlhfAnmZq1FcXpGH7Eh-8" vertex="1">
          <mxGeometry y="130" width="250" height="26" as="geometry" />
        </mxCell>
        <mxCell id="gPlhfAnmZq1FcXpGH7Eh-14" value="fecha:LocalDateTime" style="text;strokeColor=none;fillColor=none;align=left;verticalAlign=top;spacingLeft=4;spacingRight=4;overflow=hidden;rotatable=0;points=[[0,0.5],[1,0.5]];portConstraint=eastwest;whiteSpace=wrap;html=1;" parent="gPlhfAnmZq1FcXpGH7Eh-8" vertex="1">
          <mxGeometry y="156" width="250" height="26" as="geometry" />
        </mxCell>
        <mxCell id="gPlhfAnmZq1FcXpGH7Eh-15" value="Restaurante" style="swimlane;fontStyle=0;childLayout=stackLayout;horizontal=1;startSize=26;fillColor=none;horizontalStack=0;resizeParent=1;resizeParentMax=0;resizeLast=0;collapsible=1;marginBottom=0;whiteSpace=wrap;html=1;" parent="1" vertex="1">
          <mxGeometry x="-280" y="10" width="190" height="234" as="geometry" />
        </mxCell>
        <mxCell id="gPlhfAnmZq1FcXpGH7Eh-16" value="id:Long" style="text;strokeColor=none;fillColor=none;align=left;verticalAlign=top;spacingLeft=4;spacingRight=4;overflow=hidden;rotatable=0;points=[[0,0.5],[1,0.5]];portConstraint=eastwest;whiteSpace=wrap;html=1;" parent="gPlhfAnmZq1FcXpGH7Eh-15" vertex="1">
          <mxGeometry y="26" width="190" height="26" as="geometry" />
        </mxCell>
        <mxCell id="gPlhfAnmZq1FcXpGH7Eh-17" value="usuario:Usuario" style="text;strokeColor=none;fillColor=none;align=left;verticalAlign=top;spacingLeft=4;spacingRight=4;overflow=hidden;rotatable=0;points=[[0,0.5],[1,0.5]];portConstraint=eastwest;whiteSpace=wrap;html=1;" parent="gPlhfAnmZq1FcXpGH7Eh-15" vertex="1">
          <mxGeometry y="52" width="190" height="26" as="geometry" />
        </mxCell>
        <mxCell id="gPlhfAnmZq1FcXpGH7Eh-18" value="nombreFantasia:String" style="text;strokeColor=none;fillColor=none;align=left;verticalAlign=top;spacingLeft=4;spacingRight=4;overflow=hidden;rotatable=0;points=[[0,0.5],[1,0.5]];portConstraint=eastwest;whiteSpace=wrap;html=1;" parent="gPlhfAnmZq1FcXpGH7Eh-15" vertex="1">
          <mxGeometry y="78" width="190" height="26" as="geometry" />
        </mxCell>
        <mxCell id="gPlhfAnmZq1FcXpGH7Eh-19" value="menus:List&amp;lt;Menu&amp;gt;" style="text;strokeColor=none;fillColor=none;align=left;verticalAlign=top;spacingLeft=4;spacingRight=4;overflow=hidden;rotatable=0;points=[[0,0.5],[1,0.5]];portConstraint=eastwest;whiteSpace=wrap;html=1;" parent="gPlhfAnmZq1FcXpGH7Eh-15" vertex="1">
          <mxGeometry y="104" width="190" height="26" as="geometry" />
        </mxCell>
        <mxCell id="gPlhfAnmZq1FcXpGH7Eh-27" value="imagenLogo:Imagen" style="text;strokeColor=none;fillColor=none;align=left;verticalAlign=top;spacingLeft=4;spacingRight=4;overflow=hidden;rotatable=0;points=[[0,0.5],[1,0.5]];portConstraint=eastwest;whiteSpace=wrap;html=1;" parent="gPlhfAnmZq1FcXpGH7Eh-15" vertex="1">
          <mxGeometry y="130" width="190" height="26" as="geometry" />
        </mxCell>
        <mxCell id="gPlhfAnmZq1FcXpGH7Eh-20" value="promociones:List&amp;lt;Promocion&amp;gt;" style="text;strokeColor=none;fillColor=none;align=left;verticalAlign=top;spacingLeft=4;spacingRight=4;overflow=hidden;rotatable=0;points=[[0,0.5],[1,0.5]];portConstraint=eastwest;whiteSpace=wrap;html=1;" parent="gPlhfAnmZq1FcXpGH7Eh-15" vertex="1">
          <mxGeometry y="156" width="190" height="26" as="geometry" />
        </mxCell>
        <mxCell id="gPlhfAnmZq1FcXpGH7Eh-25" value="horarioAtencion:HorarioAtencion" style="text;strokeColor=none;fillColor=none;align=left;verticalAlign=top;spacingLeft=4;spacingRight=4;overflow=hidden;rotatable=0;points=[[0,0.5],[1,0.5]];portConstraint=eastwest;whiteSpace=wrap;html=1;" parent="gPlhfAnmZq1FcXpGH7Eh-15" vertex="1">
          <mxGeometry y="182" width="190" height="26" as="geometry" />
        </mxCell>
        <mxCell id="gPlhfAnmZq1FcXpGH7Eh-21" value="direccion:Direccion" style="text;strokeColor=none;fillColor=none;align=left;verticalAlign=top;spacingLeft=4;spacingRight=4;overflow=hidden;rotatable=0;points=[[0,0.5],[1,0.5]];portConstraint=eastwest;whiteSpace=wrap;html=1;" parent="gPlhfAnmZq1FcXpGH7Eh-15" vertex="1">
          <mxGeometry y="208" width="190" height="26" as="geometry" />
        </mxCell>
        <mxCell id="gPlhfAnmZq1FcXpGH7Eh-28" value="Imagen" style="swimlane;fontStyle=0;childLayout=stackLayout;horizontal=1;startSize=26;fillColor=none;horizontalStack=0;resizeParent=1;resizeParentMax=0;resizeLast=0;collapsible=1;marginBottom=0;whiteSpace=wrap;html=1;" parent="1" vertex="1">
          <mxGeometry x="-50" y="533" width="140" height="104" as="geometry" />
        </mxCell>
        <mxCell id="gPlhfAnmZq1FcXpGH7Eh-29" value="id:Long" style="text;strokeColor=none;fillColor=none;align=left;verticalAlign=top;spacingLeft=4;spacingRight=4;overflow=hidden;rotatable=0;points=[[0,0.5],[1,0.5]];portConstraint=eastwest;whiteSpace=wrap;html=1;" parent="gPlhfAnmZq1FcXpGH7Eh-28" vertex="1">
          <mxGeometry y="26" width="140" height="26" as="geometry" />
        </mxCell>
        <mxCell id="gPlhfAnmZq1FcXpGH7Eh-30" value="url:String" style="text;strokeColor=none;fillColor=none;align=left;verticalAlign=top;spacingLeft=4;spacingRight=4;overflow=hidden;rotatable=0;points=[[0,0.5],[1,0.5]];portConstraint=eastwest;whiteSpace=wrap;html=1;" parent="gPlhfAnmZq1FcXpGH7Eh-28" vertex="1">
          <mxGeometry y="52" width="140" height="26" as="geometry" />
        </mxCell>
        <mxCell id="gPlhfAnmZq1FcXpGH7Eh-31" value="nombre:String" style="text;strokeColor=none;fillColor=none;align=left;verticalAlign=top;spacingLeft=4;spacingRight=4;overflow=hidden;rotatable=0;points=[[0,0.5],[1,0.5]];portConstraint=eastwest;whiteSpace=wrap;html=1;" parent="gPlhfAnmZq1FcXpGH7Eh-28" vertex="1">
          <mxGeometry y="78" width="140" height="26" as="geometry" />
        </mxCell>
        <mxCell id="gPlhfAnmZq1FcXpGH7Eh-34" value="" style="endArrow=diamondThin;endFill=0;endSize=24;html=1;rounded=0;" parent="1" source="CQSdWUwGCRoOXEsNLzJb-117" target="CQSdWUwGCRoOXEsNLzJb-89" edge="1">
          <mxGeometry width="160" relative="1" as="geometry">
            <mxPoint x="220" y="958" as="sourcePoint" />
            <mxPoint x="120" y="937" as="targetPoint" />
          </mxGeometry>
        </mxCell>
        <mxCell id="gPlhfAnmZq1FcXpGH7Eh-35" value="1" style="edgeLabel;html=1;align=center;verticalAlign=middle;resizable=0;points=[];" parent="gPlhfAnmZq1FcXpGH7Eh-34" vertex="1" connectable="0">
          <mxGeometry x="0.5763" y="2" relative="1" as="geometry">
            <mxPoint as="offset" />
          </mxGeometry>
        </mxCell>
        <mxCell id="gPlhfAnmZq1FcXpGH7Eh-36" value="*" style="edgeLabel;html=1;align=center;verticalAlign=middle;resizable=0;points=[];" parent="gPlhfAnmZq1FcXpGH7Eh-34" vertex="1" connectable="0">
          <mxGeometry x="-0.757" y="-4" relative="1" as="geometry">
            <mxPoint as="offset" />
          </mxGeometry>
        </mxCell>
        <mxCell id="GG3eS8gy-IiwV_za862a-1" value="" style="endArrow=diamondThin;endFill=1;endSize=24;html=1;rounded=0;" edge="1" parent="1" source="CQSdWUwGCRoOXEsNLzJb-16" target="CQSdWUwGCRoOXEsNLzJb-5">
          <mxGeometry width="160" relative="1" as="geometry">
            <mxPoint x="414" y="231" as="sourcePoint" />
            <mxPoint x="168" y="130" as="targetPoint" />
          </mxGeometry>
        </mxCell>
        <mxCell id="GG3eS8gy-IiwV_za862a-3" value="1" style="edgeLabel;html=1;align=center;verticalAlign=middle;resizable=0;points=[];" vertex="1" connectable="0" parent="GG3eS8gy-IiwV_za862a-1">
          <mxGeometry x="0.4755" y="-1" relative="1" as="geometry">
            <mxPoint as="offset" />
          </mxGeometry>
        </mxCell>
        <mxCell id="GG3eS8gy-IiwV_za862a-4" value="*" style="edgeLabel;html=1;align=center;verticalAlign=middle;resizable=0;points=[];" vertex="1" connectable="0" parent="GG3eS8gy-IiwV_za862a-1">
          <mxGeometry x="-0.7787" relative="1" as="geometry">
            <mxPoint as="offset" />
          </mxGeometry>
        </mxCell>
        <mxCell id="GG3eS8gy-IiwV_za862a-2" value="" style="endArrow=diamondThin;endFill=1;endSize=24;html=1;rounded=0;" edge="1" parent="1" source="CQSdWUwGCRoOXEsNLzJb-39" target="CQSdWUwGCRoOXEsNLzJb-34">
          <mxGeometry width="160" relative="1" as="geometry">
            <mxPoint x="320" y="173" as="sourcePoint" />
            <mxPoint x="170" y="480" as="targetPoint" />
          </mxGeometry>
        </mxCell>
        <mxCell id="GG3eS8gy-IiwV_za862a-8" value="1" style="edgeLabel;html=1;align=center;verticalAlign=middle;resizable=0;points=[];" vertex="1" connectable="0" parent="GG3eS8gy-IiwV_za862a-2">
          <mxGeometry x="0.5947" y="1" relative="1" as="geometry">
            <mxPoint as="offset" />
          </mxGeometry>
        </mxCell>
        <mxCell id="GG3eS8gy-IiwV_za862a-9" value="*" style="edgeLabel;html=1;align=center;verticalAlign=middle;resizable=0;points=[];" vertex="1" connectable="0" parent="GG3eS8gy-IiwV_za862a-2">
          <mxGeometry x="-0.811" y="1" relative="1" as="geometry">
            <mxPoint as="offset" />
          </mxGeometry>
        </mxCell>
        <mxCell id="GG3eS8gy-IiwV_za862a-5" value="" style="endArrow=open;endFill=1;endSize=12;html=1;rounded=0;" edge="1" parent="1" source="CQSdWUwGCRoOXEsNLzJb-46" target="CQSdWUwGCRoOXEsNLzJb-60">
          <mxGeometry width="160" relative="1" as="geometry">
            <mxPoint x="510" y="173" as="sourcePoint" />
            <mxPoint x="650" y="158" as="targetPoint" />
          </mxGeometry>
        </mxCell>
        <mxCell id="GG3eS8gy-IiwV_za862a-6" value="1" style="edgeLabel;html=1;align=center;verticalAlign=middle;resizable=0;points=[];" vertex="1" connectable="0" parent="GG3eS8gy-IiwV_za862a-5">
          <mxGeometry x="-0.8218" y="2" relative="1" as="geometry">
            <mxPoint as="offset" />
          </mxGeometry>
        </mxCell>
        <mxCell id="GG3eS8gy-IiwV_za862a-7" value="1" style="edgeLabel;html=1;align=center;verticalAlign=middle;resizable=0;points=[];" vertex="1" connectable="0" parent="GG3eS8gy-IiwV_za862a-5">
          <mxGeometry x="0.7572" y="-1" relative="1" as="geometry">
            <mxPoint as="offset" />
          </mxGeometry>
        </mxCell>
        <mxCell id="GG3eS8gy-IiwV_za862a-10" value="" style="endArrow=diamondThin;endFill=0;endSize=24;html=1;rounded=0;" edge="1" parent="1" source="gPlhfAnmZq1FcXpGH7Eh-15" target="CQSdWUwGCRoOXEsNLzJb-5">
          <mxGeometry width="160" relative="1" as="geometry">
            <mxPoint x="130" y="377" as="sourcePoint" />
            <mxPoint x="130" y="280" as="targetPoint" />
            <Array as="points">
              <mxPoint y="130" />
            </Array>
          </mxGeometry>
        </mxCell>
        <mxCell id="GG3eS8gy-IiwV_za862a-11" value="1" style="edgeLabel;html=1;align=center;verticalAlign=middle;resizable=0;points=[];" vertex="1" connectable="0" parent="GG3eS8gy-IiwV_za862a-10">
          <mxGeometry x="0.5763" y="2" relative="1" as="geometry">
            <mxPoint as="offset" />
          </mxGeometry>
        </mxCell>
        <mxCell id="GG3eS8gy-IiwV_za862a-12" value="0,1" style="edgeLabel;html=1;align=center;verticalAlign=middle;resizable=0;points=[];" vertex="1" connectable="0" parent="GG3eS8gy-IiwV_za862a-10">
          <mxGeometry x="-0.757" y="-4" relative="1" as="geometry">
            <mxPoint as="offset" />
          </mxGeometry>
        </mxCell>
        <mxCell id="GG3eS8gy-IiwV_za862a-13" value="" style="endArrow=diamondThin;endFill=1;endSize=24;html=1;rounded=0;" edge="1" parent="1" source="CQSdWUwGCRoOXEsNLzJb-79" target="gPlhfAnmZq1FcXpGH7Eh-15">
          <mxGeometry width="160" relative="1" as="geometry">
            <mxPoint x="370" y="174" as="sourcePoint" />
            <mxPoint x="220" y="159" as="targetPoint" />
          </mxGeometry>
        </mxCell>
        <mxCell id="GG3eS8gy-IiwV_za862a-14" value="1" style="edgeLabel;html=1;align=center;verticalAlign=middle;resizable=0;points=[];" vertex="1" connectable="0" parent="GG3eS8gy-IiwV_za862a-13">
          <mxGeometry x="0.4755" y="-1" relative="1" as="geometry">
            <mxPoint as="offset" />
          </mxGeometry>
        </mxCell>
        <mxCell id="GG3eS8gy-IiwV_za862a-15" value="1" style="edgeLabel;html=1;align=center;verticalAlign=middle;resizable=0;points=[];" vertex="1" connectable="0" parent="GG3eS8gy-IiwV_za862a-13">
          <mxGeometry x="-0.7787" relative="1" as="geometry">
            <mxPoint as="offset" />
          </mxGeometry>
        </mxCell>
        <mxCell id="GG3eS8gy-IiwV_za862a-16" value="" style="endArrow=diamondThin;endFill=1;endSize=24;html=1;rounded=0;" edge="1" parent="1" source="CQSdWUwGCRoOXEsNLzJb-84" target="gPlhfAnmZq1FcXpGH7Eh-15">
          <mxGeometry width="160" relative="1" as="geometry">
            <mxPoint x="-403" y="157" as="sourcePoint" />
            <mxPoint x="-270" y="145" as="targetPoint" />
          </mxGeometry>
        </mxCell>
        <mxCell id="GG3eS8gy-IiwV_za862a-17" value="1" style="edgeLabel;html=1;align=center;verticalAlign=middle;resizable=0;points=[];" vertex="1" connectable="0" parent="GG3eS8gy-IiwV_za862a-16">
          <mxGeometry x="0.4755" y="-1" relative="1" as="geometry">
            <mxPoint as="offset" />
          </mxGeometry>
        </mxCell>
        <mxCell id="GG3eS8gy-IiwV_za862a-18" value="1" style="edgeLabel;html=1;align=center;verticalAlign=middle;resizable=0;points=[];" vertex="1" connectable="0" parent="GG3eS8gy-IiwV_za862a-16">
          <mxGeometry x="-0.7787" relative="1" as="geometry">
            <mxPoint as="offset" />
          </mxGeometry>
        </mxCell>
        <mxCell id="GG3eS8gy-IiwV_za862a-22" value="" style="endArrow=diamondThin;endFill=1;endSize=24;html=1;rounded=0;exitX=0.75;exitY=0;exitDx=0;exitDy=0;" edge="1" parent="1" source="gPlhfAnmZq1FcXpGH7Eh-8" target="gPlhfAnmZq1FcXpGH7Eh-15">
          <mxGeometry width="160" relative="1" as="geometry">
            <mxPoint x="-127" y="480" as="sourcePoint" />
            <mxPoint x="-159" y="254" as="targetPoint" />
          </mxGeometry>
        </mxCell>
        <mxCell id="GG3eS8gy-IiwV_za862a-23" value="1" style="edgeLabel;html=1;align=center;verticalAlign=middle;resizable=0;points=[];" vertex="1" connectable="0" parent="GG3eS8gy-IiwV_za862a-22">
          <mxGeometry x="0.4755" y="-1" relative="1" as="geometry">
            <mxPoint as="offset" />
          </mxGeometry>
        </mxCell>
        <mxCell id="GG3eS8gy-IiwV_za862a-24" value="*" style="edgeLabel;html=1;align=center;verticalAlign=middle;resizable=0;points=[];" vertex="1" connectable="0" parent="GG3eS8gy-IiwV_za862a-22">
          <mxGeometry x="-0.7787" relative="1" as="geometry">
            <mxPoint as="offset" />
          </mxGeometry>
        </mxCell>
        <mxCell id="GG3eS8gy-IiwV_za862a-25" value="" style="endArrow=diamondThin;endFill=1;endSize=24;html=1;rounded=0;exitX=0.592;exitY=0.033;exitDx=0;exitDy=0;exitPerimeter=0;" edge="1" parent="1" source="gPlhfAnmZq1FcXpGH7Eh-1" target="CQSdWUwGCRoOXEsNLzJb-89">
          <mxGeometry width="160" relative="1" as="geometry">
            <mxPoint x="-127" y="480" as="sourcePoint" />
            <mxPoint x="-159" y="254" as="targetPoint" />
          </mxGeometry>
        </mxCell>
        <mxCell id="GG3eS8gy-IiwV_za862a-26" value="1" style="edgeLabel;html=1;align=center;verticalAlign=middle;resizable=0;points=[];" vertex="1" connectable="0" parent="GG3eS8gy-IiwV_za862a-25">
          <mxGeometry x="0.4755" y="-1" relative="1" as="geometry">
            <mxPoint as="offset" />
          </mxGeometry>
        </mxCell>
        <mxCell id="GG3eS8gy-IiwV_za862a-27" value="*" style="edgeLabel;html=1;align=center;verticalAlign=middle;resizable=0;points=[];" vertex="1" connectable="0" parent="GG3eS8gy-IiwV_za862a-25">
          <mxGeometry x="-0.7787" relative="1" as="geometry">
            <mxPoint as="offset" />
          </mxGeometry>
        </mxCell>
        <mxCell id="GG3eS8gy-IiwV_za862a-28" value="" style="endArrow=diamondThin;endFill=1;endSize=24;html=1;rounded=0;" edge="1" parent="1" source="CQSdWUwGCRoOXEsNLzJb-99" target="gPlhfAnmZq1FcXpGH7Eh-15">
          <mxGeometry width="160" relative="1" as="geometry">
            <mxPoint x="-403" y="157" as="sourcePoint" />
            <mxPoint x="-270" y="145" as="targetPoint" />
          </mxGeometry>
        </mxCell>
        <mxCell id="GG3eS8gy-IiwV_za862a-29" value="1" style="edgeLabel;html=1;align=center;verticalAlign=middle;resizable=0;points=[];" vertex="1" connectable="0" parent="GG3eS8gy-IiwV_za862a-28">
          <mxGeometry x="0.4755" y="-1" relative="1" as="geometry">
            <mxPoint as="offset" />
          </mxGeometry>
        </mxCell>
        <mxCell id="GG3eS8gy-IiwV_za862a-30" value="*" style="edgeLabel;html=1;align=center;verticalAlign=middle;resizable=0;points=[];" vertex="1" connectable="0" parent="GG3eS8gy-IiwV_za862a-28">
          <mxGeometry x="-0.7787" relative="1" as="geometry">
            <mxPoint as="offset" />
          </mxGeometry>
        </mxCell>
        <mxCell id="GG3eS8gy-IiwV_za862a-31" value="" style="endArrow=diamondThin;endFill=1;endSize=24;html=1;rounded=0;" edge="1" parent="1" source="gPlhfAnmZq1FcXpGH7Eh-28" target="gPlhfAnmZq1FcXpGH7Eh-15">
          <mxGeometry width="160" relative="1" as="geometry">
            <mxPoint x="-175" y="630" as="sourcePoint" />
            <mxPoint x="-175" y="254" as="targetPoint" />
          </mxGeometry>
        </mxCell>
        <mxCell id="GG3eS8gy-IiwV_za862a-32" value="1" style="edgeLabel;html=1;align=center;verticalAlign=middle;resizable=0;points=[];" vertex="1" connectable="0" parent="GG3eS8gy-IiwV_za862a-31">
          <mxGeometry x="0.4755" y="-1" relative="1" as="geometry">
            <mxPoint as="offset" />
          </mxGeometry>
        </mxCell>
        <mxCell id="GG3eS8gy-IiwV_za862a-33" value="1" style="edgeLabel;html=1;align=center;verticalAlign=middle;resizable=0;points=[];" vertex="1" connectable="0" parent="GG3eS8gy-IiwV_za862a-31">
          <mxGeometry x="-0.7787" relative="1" as="geometry">
            <mxPoint as="offset" />
          </mxGeometry>
        </mxCell>
        <mxCell id="GG3eS8gy-IiwV_za862a-34" value="" style="endArrow=diamondThin;endFill=1;endSize=24;html=1;rounded=0;" edge="1" parent="1" source="gPlhfAnmZq1FcXpGH7Eh-28" target="CQSdWUwGCRoOXEsNLzJb-89">
          <mxGeometry width="160" relative="1" as="geometry">
            <mxPoint x="7" y="543" as="sourcePoint" />
            <mxPoint x="-123" y="254" as="targetPoint" />
          </mxGeometry>
        </mxCell>
        <mxCell id="GG3eS8gy-IiwV_za862a-35" value="1" style="edgeLabel;html=1;align=center;verticalAlign=middle;resizable=0;points=[];" vertex="1" connectable="0" parent="GG3eS8gy-IiwV_za862a-34">
          <mxGeometry x="0.4755" y="-1" relative="1" as="geometry">
            <mxPoint as="offset" />
          </mxGeometry>
        </mxCell>
        <mxCell id="GG3eS8gy-IiwV_za862a-36" value="*" style="edgeLabel;html=1;align=center;verticalAlign=middle;resizable=0;points=[];" vertex="1" connectable="0" parent="GG3eS8gy-IiwV_za862a-34">
          <mxGeometry x="-0.7787" relative="1" as="geometry">
            <mxPoint as="offset" />
          </mxGeometry>
        </mxCell>
      </root>
    </mxGraphModel>
  </diagram>
</mxfile>
